<?xml version="1.0" encoding="UTF-8" standalone="no"?>
<!DOCTYPE svg PUBLIC "-//W3C//DTD SVG 1.1//EN" "http://www.w3.org/Graphics/SVG/1.1/DTD/svg11.dtd">
<svg width="100%" height="100%" viewBox="0 0 946 581" version="1.1" xmlns="http://www.w3.org/2000/svg" xmlns:xlink="http://www.w3.org/1999/xlink" xml:space="preserve" xmlns:serif="http://www.serif.com/" style="fill-rule:evenodd;clip-rule:evenodd;stroke-linejoin:round;stroke-miterlimit:2;">
    <g transform="matrix(1,0,0,1,-127,-159.603)">
        <path d="M1073,655.427L738.852,655.427C750.05,598.276 749.011,537.786 738.852,474.807L1073,474.807C1064.52,538.877 1064.25,599.204 1073,655.427Z" style="fill:rgb(208,205,225);fill-rule:nonzero;"/>
    </g>
    <rect x="739.415" y="373.906" width="167.074" height="4.516" style="fill:rgb(63,61,86);"/>
    <rect x="739.415" y="388.581" width="167.074" height="4.516" style="fill:rgb(63,61,86);"/>
    <rect x="739.415" y="403.256" width="167.074" height="4.516" style="fill:rgb(63,61,86);"/>
    <rect x="739.415" y="417.932" width="167.074" height="4.516" style="fill:rgb(63,61,86);"/>
    <rect x="739.415" y="432.607" width="167.074" height="4.516" style="fill:rgb(63,61,86);"/>
    <rect x="651.363" y="377.857" width="55.315" height="55.315" style="fill:rgb(63,61,86);"/>
    <path d="M490.949,314.718L490.949,314.718C525.192,314.718 553.37,342.896 553.37,377.14L553.37,495.893L309.774,495.893L309.774,495.893C309.774,396.503 391.559,314.718 490.949,314.718Z" style="fill:rgb(63,61,86);fill-rule:nonzero;"/>
    <g transform="matrix(1,0,0,1,-127,-159.603)">
        <path d="M180.444,635.202C179.292,635.226 178.177,635.618 177.264,636.321C174.554,629.16 170.359,624.558 165.646,624.558C160.934,624.558 156.739,629.16 154.029,636.321C153.116,635.618 152.001,635.226 150.849,635.202C145.495,635.202 141.155,644.257 141.155,655.427L190.138,655.427C190.138,644.257 185.798,635.202 180.444,635.202Z" style="fill:rgb(53,173,224);fill-rule:nonzero;"/>
    </g>
    <g transform="matrix(1,0,0,1,-127,-159.603)">
        <path d="M340.641,656.359L246.944,656.359C249.942,621.051 249.942,585.552 246.944,550.244L340.641,550.244C335.482,586.588 335.18,622.016 340.641,656.359Z" style="fill:rgb(208,205,225);fill-rule:nonzero;"/>
    </g>
    <rect x="133.49" y="412.09" width="67.733" height="4.516" style="fill:rgb(63,61,86);"/>
    <rect x="133.49" y="426.765" width="67.733" height="4.516" style="fill:rgb(63,61,86);"/>
    <rect x="133.49" y="441.441" width="67.733" height="4.516" style="fill:rgb(63,61,86);"/>
    <rect x="133.49" y="456.116" width="67.733" height="4.516" style="fill:rgb(63,61,86);"/>
    <rect x="133.49" y="470.792" width="67.733" height="4.516" style="fill:rgb(63,61,86);"/>
    <rect x="0" y="494.696" width="827.467" height="2.258" style="fill:rgb(63,61,86);"/>
    <path d="M328.096,483.106L336.005,525.287L370.277,498.923L349.846,474.538L328.096,483.106Z" style="fill:rgb(160,97,106);fill-rule:nonzero;"/>
    <path d="M532.411,487.06L524.502,529.241L490.23,502.878L506.707,477.174L532.411,487.06Z" style="fill:rgb(160,97,106);fill-rule:nonzero;"/>
    <g transform="matrix(1,0,0,1,-127,-159.603)">
        <path d="M528.913,408.076L509.141,429.167C509.141,429.167 405.006,475.302 405.006,499.029C405.006,522.756 430.051,625.572 440.597,633.481C446.948,638.271 451.945,644.632 455.096,651.936L484.096,637.436C484.096,637.436 481.46,629.527 484.096,625.572C486.732,621.618 484.096,618.982 484.096,618.982C484.096,618.982 480.141,620.3 481.46,616.345C482.778,612.391 482.778,611.073 481.46,609.755C480.141,608.436 476.187,596.573 476.187,596.573C476.187,596.573 477.505,549.119 459.051,531.983C459.051,531.983 544.731,506.938 555.277,489.802C565.822,472.666 568.458,410.712 568.458,410.712L528.913,408.076Z" style="fill:rgb(47,46,65);fill-rule:nonzero;"/>
    </g>
    <g transform="matrix(1,0,0,1,-127,-159.603)">
        <path d="M468.278,669.072C468.278,669.072 465.642,654.572 449.824,658.526L449.824,675.663L435.324,704.662C435.324,704.662 405.006,738.934 432.688,736.298C460.369,733.662 476.187,716.526 476.187,708.617C476.187,700.708 495.959,688.844 495.959,688.844C495.959,688.844 517.05,666.435 507.823,658.526C498.596,650.618 489.58,637.206 489.474,643.912C489.369,650.617 468.278,669.072 468.278,669.072Z" style="fill:rgb(47,46,65);fill-rule:nonzero;"/>
    </g>
    <g transform="matrix(1,0,0,1,-127,-159.603)">
        <path d="M585.594,398.849L605.367,433.121C605.367,433.121 709.501,479.257 709.501,502.984C709.501,526.711 684.456,629.527 673.911,637.436C667.56,642.226 662.562,648.586 659.411,655.89L630.412,641.39C630.412,641.39 633.048,633.481 630.412,629.527C627.775,625.573 630.412,622.936 630.412,622.936C630.412,622.936 634.366,624.254 633.048,620.3C631.73,616.345 631.73,615.027 633.048,613.709C634.366,612.391 638.321,600.527 638.321,600.527C638.321,600.527 637.002,553.074 655.457,535.938C655.457,535.938 561.867,502.984 551.322,485.848C537.817,463.901 547.691,373.781 544.731,404.122L585.594,398.849Z" style="fill:rgb(47,46,65);fill-rule:nonzero;"/>
    </g>
    <g transform="matrix(1,0,0,1,-127,-159.603)">
        <path d="M646.23,673.026C646.23,673.026 648.866,658.526 664.684,662.481L664.684,679.617L679.184,708.617C679.184,708.617 709.501,742.889 681.82,740.252C654.138,737.616 638.321,720.48 638.321,712.571C638.321,704.662 618.548,692.799 618.548,692.799C618.548,692.799 597.458,670.39 606.685,662.481C615.912,654.572 624.927,641.161 625.033,647.866C625.139,654.572 646.23,673.026 646.23,673.026Z" style="fill:rgb(47,46,65);fill-rule:nonzero;"/>
    </g>
    <circle cx="465.185" cy="48.113" r="34.272" style="fill:rgb(160,97,106);"/>
    <g transform="matrix(1,0,0,1,-127,-159.603)">
        <path d="M568.458,223.534C568.458,223.534 567.14,251.215 550.004,259.124C532.868,267.033 577.685,294.714 577.685,294.714L610.639,277.578C610.639,277.578 602.73,239.352 609.321,231.443C615.912,223.534 568.458,223.534 568.458,223.534Z" style="fill:rgb(160,97,106);fill-rule:nonzero;"/>
    </g>
    <g transform="matrix(1,0,0,1,-127,-159.603)">
        <path d="M615.912,259.124C615.912,259.124 569.991,290.438 556.043,255.009C556.043,255.009 522.323,268.351 523.641,277.578C524.959,286.805 521.004,413.349 521.004,413.349C521.004,413.349 576.367,429.167 592.185,413.349C608.003,397.531 615.912,259.124 615.912,259.124Z" style="fill:rgb(208,205,225);fill-rule:nonzero;"/>
    </g>
    <g transform="matrix(1,0,0,1,-127,-159.603)">
        <path d="M606.748,247.346L611.957,252.533C611.957,252.533 667.32,276.26 666.002,289.442C664.684,302.623 639.639,364.577 639.639,364.577C639.639,364.577 626.457,412.031 629.093,425.212C631.73,438.394 635.684,442.348 633.048,446.303C630.412,450.257 633.048,458.166 633.048,460.802C633.048,463.439 617.23,473.984 617.23,473.984C617.23,473.984 592.185,451.575 582.958,447.621C573.731,443.666 567.14,413.349 573.731,386.986C580.322,360.622 581.64,303.941 581.64,303.941L600.094,276.26C600.094,276.26 600.221,256.659 606.748,247.346Z" style="fill:rgb(87,90,137);fill-rule:nonzero;"/>
    </g>
    <g transform="matrix(1,0,0,1,-127,-159.603)">
        <path d="M564.38,241.988C564.38,241.988 553.958,240.67 551.322,247.261C548.686,253.851 503.868,268.351 503.868,273.624C503.868,278.896 517.05,344.804 517.05,344.804L519.686,383.031L495.959,400.167C495.959,400.167 501.232,417.303 494.641,423.894C488.05,430.485 480.141,447.621 488.05,450.257C495.959,452.894 544.731,434.439 546.049,414.667C547.367,394.895 542.095,380.395 551.322,365.895C560.549,351.395 561.867,294.714 561.867,294.714L564.38,241.988Z" style="fill:rgb(87,90,137);fill-rule:nonzero;"/>
    </g>
    <g transform="matrix(1,0,0,1,-127,-159.603)">
        <path d="M624.193,178.146C619.071,169.828 611.047,163.694 601.677,160.933L594.793,166.44L597.47,160.017C595.219,159.673 592.941,159.542 590.666,159.624L584.472,167.587L587.035,159.896C576.175,161.246 566.36,167.084 559.991,175.983C552.107,187.35 550.777,203.158 558.531,214.614C560.659,208.073 563.242,201.936 565.371,195.395C567.044,195.623 568.739,195.631 570.414,195.419L573.003,189.377L573.727,195.164C581.753,194.464 593.658,192.929 601.267,191.522L600.527,187.083L604.954,190.772C607.285,190.235 608.669,189.749 608.555,189.377C614.214,198.5 621.14,204.327 626.798,213.45C628.947,200.582 631.421,189.885 624.193,178.146Z" style="fill:rgb(47,46,65);fill-rule:nonzero;"/>
    </g>
    <ellipse cx="496.821" cy="49.431" rx="2.768" ry="4.614" style="fill:rgb(160,97,106);"/>
    <g transform="matrix(1,0,0,1,-127,-159.603)">
        <path d="M609.671,444.134L550.103,444.134C547.002,444.134 544.45,441.582 544.45,438.481L541.825,360.539C541.825,357.437 544.377,354.886 547.478,354.886L612.296,354.886C615.397,354.886 617.949,357.437 617.949,360.539L615.324,438.481C615.324,441.582 612.772,444.134 609.671,444.134Z" style="fill:rgb(63,61,86);fill-rule:nonzero;"/>
    </g>
    <circle cx="452.887" cy="218.907" r="5.25" style="fill:rgb(208,205,225);"/>
    <g transform="matrix(1,0,0,1,-127,-159.603)">
        <path d="M633.396,407.906C633.396,407.906 580.778,425.944 593.786,437.43C606.794,448.916 641.45,420.55 641.45,420.55L633.396,407.906Z" style="fill:rgb(160,97,106);fill-rule:nonzero;"/>
    </g>
    <g transform="matrix(1,0,0,1,-127,-159.603)">
        <path d="M644.911,281.533C644.911,281.533 664.684,277.578 669.956,294.714C675.229,311.85 701.592,375.122 693.683,384.349C685.774,393.576 656.775,418.621 647.548,423.894C638.321,429.167 634.366,429.167 634.366,429.167L622.503,434.439L618.548,404.122L632.077,396.107L652.82,379.077L640.957,343.486L644.911,281.533Z" style="fill:rgb(87,90,137);fill-rule:nonzero;"/>
    </g>
    <g transform="matrix(1,0,0,1,-127,-159.603)">
        <path d="M527.247,398.679C527.247,398.679 579.865,416.717 566.857,428.203C553.849,439.689 519.193,411.323 519.193,411.323L527.247,398.679Z" style="fill:rgb(160,97,106);fill-rule:nonzero;"/>
    </g>
    <g transform="matrix(1,0,0,1,-127,-159.603)">
        <path d="M515.732,272.306C515.732,272.306 495.959,268.351 490.687,285.487C485.414,302.623 459.051,365.895 466.96,375.122C474.869,384.349 503.868,409.394 513.095,414.667C522.323,419.94 526.277,419.94 526.277,419.94L538.14,425.212L542.095,394.895L528.566,386.88L507.823,369.849L526.936,323.055L515.732,272.306Z" style="fill:rgb(87,90,137);fill-rule:nonzero;"/>
    </g>
    <g transform="matrix(1,0,0,1,-127,-159.603)">
        <path d="M319.882,630.093L364.376,616.154C361.914,597.65 356.292,579.705 347.757,563.103L303.262,577.042C313.702,592.799 319.466,611.196 319.882,630.093Z" style="fill:rgb(53,173,224);fill-rule:nonzero;"/>
    </g>
    <g transform="matrix(1,0,0,1,-127,-159.603)">
        <path d="M764.031,633.634L810.657,633.634C813.839,615.239 813.839,596.435 810.657,578.04L764.031,578.04C769.283,596.197 769.283,615.477 764.031,633.634Z" style="fill:rgb(53,173,224);fill-rule:nonzero;"/>
    </g>
    <g transform="matrix(1,0,0,1,-127,-159.603)">
        <path d="M978.518,643.794L1025.14,643.794C1028.33,625.399 1028.33,606.594 1025.14,588.2L978.518,588.2C983.77,606.357 983.77,625.637 978.518,643.794Z" style="fill:rgb(53,173,224);fill-rule:nonzero;"/>
    </g>
</svg>
