<?xml version="1.0" encoding="UTF-8" standalone="no"?>
<!DOCTYPE svg PUBLIC "-//W3C//DTD SVG 1.1//EN" "http://www.w3.org/Graphics/SVG/1.1/DTD/svg11.dtd">
<svg width="100%" height="100%" viewBox="0 0 1016 526" version="1.1" xmlns="http://www.w3.org/2000/svg" xmlns:xlink="http://www.w3.org/1999/xlink" xml:space="preserve" xmlns:serif="http://www.serif.com/" style="fill-rule:evenodd;clip-rule:evenodd;stroke-linejoin:round;stroke-miterlimit:2;">
    <g transform="matrix(0.272114,-0.962265,0.962265,0.272114,59.4623,833.986)">
        <rect x="600.647" y="143.872" width="300.346" height="532.432" style="fill:rgb(63,61,86);"/>
    </g>
    <circle cx="451.929" cy="18.229" r="4.243" style="fill:rgb(53,173,224);"/>
    <circle cx="464.995" cy="21.924" r="4.243" style="fill:rgb(53,173,224);"/>
    <circle cx="478.061" cy="25.618" r="4.243" style="fill:rgb(53,173,224);"/>
    <g transform="matrix(1,0,0,1,-92.4361,-187)">
        <path d="M807.42,376.53C800.561,375.233 793.506,375.4 786.716,377.018C788.693,370.23 789.192,363.096 788.179,356.098C781.188,358.629 774.86,362.713 769.673,368.041C768.045,360.786 764.793,353.993 760.162,348.175C755.635,353.606 752.324,359.945 750.453,366.764C745.516,361.829 739.593,357.992 733.071,355.505C726.549,353.018 729.981,371.221 737.421,384.117C744.042,395.595 756.764,400.966 759.484,402.009L759.547,402.086L759.582,402.047C759.858,402.152 760.012,402.205 760.012,402.205C760.012,402.205 760.071,401.903 760.151,401.364C760.2,401.304 760.249,401.243 760.303,401.175C760.314,401.261 760.324,401.339 760.334,401.416C760.12,401.917 760.012,402.205 760.012,402.205C760.012,402.205 760.172,402.24 760.462,402.296L760.47,402.347L760.565,402.315C763.428,402.85 777.079,404.937 788.731,398.627C801.822,391.537 807.42,376.53 807.42,376.53Z" style="fill:rgb(53,173,224);fill-rule:nonzero;"/>
    </g>
    <circle cx="689.592" cy="138.352" r="11.032" style="fill:rgb(53,173,224);"/>
    <g transform="matrix(0.962265,0.272114,-0.272114,0.962265,51.7422,-376.059)">
        <rect x="581.484" y="421.571" width="344.549" height="7.496" style="fill:rgb(53,173,224);"/>
    </g>
    <g transform="matrix(0.962265,0.272114,-0.272114,0.962265,55.4908,-341.319)">
        <rect x="600.672" y="426.503" width="59.405" height="59.405" style="fill:rgb(53,173,224);"/>
    </g>
    <g transform="matrix(0.962265,0.272114,-0.272114,0.962265,67.6658,-369.074)">
        <rect x="706.833" y="456.523" width="59.405" height="59.405" style="fill:rgb(53,173,224);"/>
    </g>
    <g transform="matrix(0.962265,0.272114,-0.272114,0.962265,79.8407,-396.829)">
        <rect x="812.994" y="486.544" width="59.405" height="59.405" style="fill:rgb(53,173,224);"/>
    </g>
    <g transform="matrix(0.962265,0.272114,-0.272114,0.962265,66.5927,-336.449)">
        <rect x="596.302" y="496.124" width="44.129" height="5.092" style="fill:rgb(53,173,224);"/>
    </g>
    <g transform="matrix(0.962265,0.272114,-0.272114,0.962265,78.7677,-364.204)">
        <rect x="702.463" y="526.144" width="44.129" height="5.092" style="fill:rgb(53,173,224);"/>
    </g>
    <g transform="matrix(0.962265,0.272114,-0.272114,0.962265,90.9427,-391.959)">
        <rect x="808.623" y="556.165" width="44.129" height="5.092" style="fill:rgb(53,173,224);"/>
    </g>
    <ellipse cx="289.6" cy="396.5" rx="284" ry="10.5" style="fill:rgb(208,205,225);"/>
    <ellipse cx="794.128" cy="515.5" rx="221" ry="10.5" style="fill:rgb(208,205,225);"/>
    <g transform="matrix(1,0,0,1,-92.4361,-187)">
        <path d="M778.172,621L841.93,621L841.93,647.664L804.836,647.664L804.836,674.327L841.933,674.327L841.933,700.989L778.172,700.989L778.172,621ZM854.682,621L918.443,621L918.443,644.186L881.347,644.186L881.347,648.822L918.443,648.822L918.443,702.15L854.685,702.15L854.685,677.802L891.781,677.802L891.781,673.165L854.682,673.165L854.682,621ZM931.196,621L994.956,621L994.956,644.186L957.86,644.186L957.86,648.822L994.956,648.822L994.956,702.15L931.196,702.15L931.196,677.802L968.292,677.802L968.292,673.165L931.198,673.165L931.198,621L931.196,621Z" style="fill:rgb(63,61,86);fill-rule:nonzero;"/>
    </g>
    <g transform="matrix(1,0,0,1,-92.4361,-187)">
        <path d="M220.926,499L247.228,499L247.228,524.986L271.289,524.986L271.289,499L297.593,499L297.593,577.693L271.291,577.693L271.291,551.342L247.23,551.342L247.23,577.693L220.928,577.693L220.928,499L220.926,499ZM332.185,525.096L309.028,525.096L309.028,499L381.654,499L381.654,525.096L358.487,525.096L358.487,577.693L332.185,577.693L332.185,525.096ZM393.179,499L420.605,499L437.475,526.651L454.329,499L481.766,499L481.766,577.693L455.571,577.693L455.571,538.688L437.475,566.668L437.021,566.668L418.914,538.688L418.914,577.693L393.179,577.693L393.179,499ZM494.854,499L521.166,499L521.166,551.682L558.154,551.682L558.154,577.693L494.854,577.693L494.854,499Z" style="fill:rgb(63,61,86);fill-rule:nonzero;"/>
    </g>
    <path d="M82.034,366.091L79.876,390.558L97.146,389.118L97.146,368.25L82.034,366.091Z" style="fill:rgb(255,184,184);fill-rule:nonzero;"/>
    <path d="M66.203,366.091L68.362,390.558L51.092,389.118L51.092,368.25L66.203,366.091Z" style="fill:rgb(255,184,184);fill-rule:nonzero;"/>
    <g transform="matrix(1,0,0,1,-92.4361,-187)">
        <path d="M203.974,365.276C203.974,365.276 209.731,399.816 209.731,404.854C209.731,409.891 207.572,442.273 203.974,448.749C200.376,455.226 199.657,458.104 201.096,460.982C202.535,463.861 201.815,463.141 201.096,465.3C200.376,467.459 198.937,466.739 201.096,469.618C202.897,472.207 202.897,475.664 201.096,478.253C199.657,480.412 203.974,538.699 198.217,543.017C192.461,547.334 191.021,561.726 191.021,561.726L172.312,559.568L172.312,543.736C172.312,543.736 167.994,532.223 170.873,525.027C173.751,517.831 175.19,479.692 175.19,479.692C175.19,479.692 174.471,476.094 175.19,473.935C175.91,471.776 175.19,470.337 173.751,469.618C172.312,468.898 171.592,466.02 171.592,466.02L169.433,413.489L160.798,465.3C160.798,465.3 169.433,535.821 160.798,545.176L160.798,561.726L142.089,561.726L144.967,543.736C144.967,543.736 139.21,527.186 142.089,523.588C144.967,519.99 133.453,462.422 134.893,460.263C136.332,458.104 135.612,457.384 134.893,455.945C134.173,454.506 132.014,453.067 132.734,451.628C133.453,450.188 132.734,447.31 132.734,447.31C132.734,447.31 119.061,379.668 125.538,373.191C132.014,366.715 203.974,365.276 203.974,365.276Z" style="fill:rgb(47,46,65);fill-rule:nonzero;"/>
    </g>
    <g transform="matrix(1,0,0,1,-92.4361,-187)">
        <path d="M176.629,568.203C176.629,568.203 178.069,561.301 189.582,563.673C189.582,563.673 192.461,569.642 192.461,572.52C192.461,575.399 195.339,594.828 195.339,594.828C195.339,594.828 206.853,614.257 192.461,614.257C178.069,614.257 173.031,609.22 172.312,604.183C171.592,599.146 173.031,597.706 170.153,595.548C167.275,593.389 165.835,593.389 166.555,590.51C167.275,587.632 168.714,573.24 168.714,573.24C168.714,573.24 169.433,562.446 173.391,565.324L177.349,568.203" style="fill:rgb(47,46,65);fill-rule:nonzero;"/>
    </g>
    <g transform="matrix(1,0,0,1,-92.4361,-187)">
        <path d="M156.481,568.203C156.481,568.203 155.041,561.301 143.528,563.673C143.528,563.673 140.649,569.642 140.649,572.52C140.649,575.399 137.771,594.828 137.771,594.828C137.771,594.828 126.257,614.257 140.649,614.257C155.041,614.257 160.079,609.22 160.798,604.183C161.518,599.146 160.079,597.706 162.957,595.548C165.835,593.389 167.275,593.389 166.555,590.51C165.835,587.632 164.396,573.24 164.396,573.24C164.396,573.24 163.677,562.446 159.719,565.324L155.761,568.203" style="fill:rgb(47,46,65);fill-rule:nonzero;"/>
    </g>
    <circle cx="84.913" cy="26.44" r="19.429" style="fill:rgb(255,184,184);"/>
    <g transform="matrix(1,0,0,1,-92.4361,-187)">
        <path d="M161.518,216.319C161.518,216.319 153.602,247.261 152.163,247.981C150.724,248.7 185.265,251.579 185.265,251.579C185.265,251.579 176.629,224.954 185.265,220.636L161.518,216.319Z" style="fill:rgb(255,184,184);fill-rule:nonzero;"/>
    </g>
    <g transform="matrix(1,0,0,1,-92.4361,-187)">
        <path d="M156.463,235.175L156.462,235.171L132.734,251.579L137.051,380.387C137.051,380.387 168.714,376.789 175.91,377.509C183.106,378.228 206.133,371.032 206.133,371.032L196.047,249.997C195.641,245.131 191.709,241.248 186.838,240.905L182.517,240.6C182.517,240.6 178.199,251.29 165.21,245.775C160.771,243.844 157.516,239.899 156.463,235.175Z" style="fill:rgb(208,205,225);fill-rule:nonzero;"/>
    </g>
    <g transform="matrix(1,0,0,1,-92.4361,-187)">
        <path d="M157.036,234L127.697,247.981L121.94,330.735C121.94,330.735 110.426,380.387 119.781,394.779C129.136,409.171 144.967,410.61 144.967,410.61C144.967,410.61 165.835,327.856 160.079,299.792C154.322,271.728 157.036,234 157.036,234Z" style="fill:rgb(87,90,137);fill-rule:nonzero;"/>
    </g>
    <g transform="matrix(1,0,0,1,-92.4361,-187)">
        <path d="M101.791,358.799L101.791,369.593C101.791,369.593 97.473,393.34 111.146,392.62C124.818,391.901 118.342,366.715 118.342,366.715L114.024,358.799L101.791,358.799Z" style="fill:rgb(255,184,184);fill-rule:nonzero;"/>
    </g>
    <g transform="matrix(1,0,0,1,-92.4361,-187)">
        <path d="M228.44,380.387L227.001,392.62C227.001,392.62 234.197,417.087 220.525,417.806C206.852,418.526 216.777,392.771 216.777,392.771L221.244,378.948L228.44,380.387Z" style="fill:rgb(255,184,184);fill-rule:nonzero;"/>
    </g>
    <g transform="matrix(1,0,0,1,-92.4361,-187)">
        <path d="M182.084,238.085C195.195,241.315 207.346,247.632 217.522,256.508L217.646,256.616L207.572,309.866L206.133,329.296C206.133,329.296 232.758,424.283 201.815,410.61C201.815,410.61 175.19,327.856 178.788,289.718C182.386,251.579 182.084,238.085 182.084,238.085Z" style="fill:rgb(87,90,137);fill-rule:nonzero;"/>
    </g>
    <g transform="matrix(1,0,0,1,-92.4361,-187)">
        <path d="M208.292,255.897C209.011,255.177 217.647,256.897 217.647,256.897C217.647,256.897 233.478,312.745 233.478,322.1C233.478,331.454 235.636,384.705 235.636,384.705L216.641,386.62L201.266,312.633L208.292,255.897Z" style="fill:rgb(87,90,137);fill-rule:nonzero;"/>
    </g>
    <g transform="matrix(1,0,0,1,-92.4361,-187)">
        <path d="M132.734,247.981L127.697,247.981C127.697,247.981 113.305,253.738 112.585,260.214C111.865,266.69 92.436,332.174 92.436,332.174L97.473,365.276L116.183,362.397L119.781,325.698L138.491,285.4L132.734,247.981Z" style="fill:rgb(87,90,137);fill-rule:nonzero;"/>
    </g>
    <g transform="matrix(1,0,0,1,-92.4361,-187)">
        <path d="M173.574,218.863L174.319,213.67C174.493,212.459 175.201,210.868 176.379,211.197C177.38,211.477 179.563,212.334 179.928,212.076C181.296,211.106 183.367,212.801 184.805,211.94C185.408,211.579 185.801,210.807 186.502,210.755C186.972,210.785 187.415,210.986 187.747,211.319C188.681,212.131 189.782,212.729 190.972,213.071C192.185,213.401 193.488,213.046 194.366,212.146C194.518,211.91 194.724,211.713 194.966,211.57C195.25,211.488 195.554,211.502 195.829,211.61L199.505,212.611C200.599,208.646 199.908,204.395 197.615,200.981C196.124,198.957 194.316,197.186 192.261,195.737C189.985,194.005 187.635,192.376 185.213,190.85C182.645,189.033 179.73,187.765 176.65,187.125C173.55,186.654 170.079,187.496 168.129,189.952C167.212,189.288 166.522,188.357 166.155,187.286C165.735,187.668 165.495,188.211 165.495,188.78C165.495,189.407 165.787,190 166.286,190.382L163.177,188.397C162.303,189.315 164.01,190.979 163.265,192.004C163.04,192.258 162.751,192.446 162.428,192.551C160.74,193.209 159.193,194.182 157.87,195.42C156.194,197.329 154.968,199.589 154.28,202.033C152.427,207.348 151.08,213.444 153.713,218.419C154.011,218.983 157.95,228.292 158.475,228.655C160.249,229.882 159.094,226.913 160.365,228.655C161.362,230.022 161.175,224.792 162.657,225.94C163.841,226.787 165.421,226.858 166.677,226.12C167.291,225.694 167.093,223.329 166.761,221.157C166.742,221.029 166.732,220.899 166.732,220.77C166.732,219.366 167.887,218.211 169.291,218.211C169.487,218.211 169.683,218.233 169.875,218.278C171.72,218.712 173.543,219.083 173.574,218.863Z" style="fill:rgb(47,46,65);fill-rule:nonzero;"/>
    </g>
    <path d="M117.655,134.02L125.57,199.504L120.533,199.504L117.655,134.02Z" style="fill-opacity:0.2;fill-rule:nonzero;"/>
    <path d="M34.181,108.834L30.179,134.02L37.779,108.834L34.181,108.834Z" style="fill-opacity:0.2;fill-rule:nonzero;"/>
</svg>
