<?xml version="1.0" encoding="UTF-8" standalone="no"?>
<!DOCTYPE svg PUBLIC "-//W3C//DTD SVG 1.1//EN" "http://www.w3.org/Graphics/SVG/1.1/DTD/svg11.dtd">
<svg width="100%" height="100%" viewBox="0 0 934 784" version="1.1" xmlns="http://www.w3.org/2000/svg" xmlns:xlink="http://www.w3.org/1999/xlink" xml:space="preserve" xmlns:serif="http://www.serif.com/" style="fill-rule:evenodd;clip-rule:evenodd;stroke-linejoin:round;stroke-miterlimit:2;">
    <g transform="matrix(1,0,0,1,-73.7786,-85)">
        <path d="M627.332,841.142C627.332,856.429 532.754,868.814 415.885,868.894L414.822,868.894C357.776,868.894 305.974,865.957 267.802,861.193C266.168,860.976 264.557,860.77 262.981,860.553C256.491,859.696 250.424,858.771 244.837,857.811C218.137,853.161 202.313,847.391 202.313,841.142C202.313,836.08 212.664,831.35 230.75,827.26C240.302,825.101 252.001,823.135 265.483,821.399C267.962,821.067 270.506,820.755 273.115,820.462C310.715,816.063 360.381,813.39 414.822,813.39C425.402,813.39 435.81,813.493 445.979,813.687C548.566,815.652 627.332,827.191 627.332,841.142Z" style="fill:rgb(63,61,86);fill-rule:nonzero;"/>
    </g>
    <rect x="617.705" y="416.066" width="314.754" height="161.311" style="fill:rgb(242,242,242);"/>
    <rect x="226.23" y="0.984" width="314.754" height="161.311" style="fill:rgb(242,242,242);"/>
    <g transform="matrix(1,0,0,1,-73.7786,-85)">
        <path d="M615.746,248.279L299.025,248.279L299.025,85L615.746,85L615.746,248.279ZM300.992,246.311L613.779,246.311L613.779,86.967L300.992,86.967L300.992,246.311Z" style="fill:rgb(53,173,224);fill-rule:nonzero;"/>
    </g>
    <rect x="617.705" y="0.984" width="314.754" height="161.311" style="fill:rgb(242,242,242);"/>
    <rect x="226.23" y="208.525" width="314.754" height="161.311" style="fill:rgb(242,242,242);"/>
    <rect x="617.705" y="208.525" width="314.754" height="161.311" style="fill:rgb(242,242,242);"/>
    <rect x="226.23" y="416.066" width="314.754" height="161.311" style="fill:rgb(242,242,242);"/>
    <circle cx="40.328" cy="81.639" r="40.328" style="fill:rgb(242,242,242);"/>
    <g transform="matrix(1,0,0,1,-73.7786,-85)">
        <path d="M227.221,126.311C227.221,126.311 227.221,126.311 227.221,126.311C205.098,126.311 186.893,144.516 186.893,166.639C186.893,188.763 205.098,206.967 227.221,206.967C249.344,206.967 267.549,188.763 267.549,166.639C267.549,166.639 267.549,166.639 267.549,166.639C267.549,144.516 249.344,126.311 227.221,126.311ZM244.698,181.622L241.22,185.099L226.729,170.608L212.239,185.099L208.761,181.622L223.252,167.131L206.794,150.673L210.271,147.196L226.729,163.654L243.188,147.196L246.665,150.673L230.207,167.131L244.698,181.622Z" style="fill:rgb(242,242,242);fill-rule:nonzero;"/>
    </g>
    <path d="M36.256,100.783L17.71,76.237L21.634,73.271L36.531,92.988L78.311,45.105L82.017,48.338L36.256,100.783Z" style="fill:rgb(53,173,224);fill-rule:nonzero;"/>
    <g transform="matrix(1,0,0,1,-73.7786,-85)">
        <path d="M580.494,662.044C567.703,659.877 555.403,658.016 543.592,656.461L548.261,647.409C546.687,646.862 539.77,652.046 539.77,652.046L545.897,625.769C537.979,626.724 533.953,653.555 533.953,653.555L525.107,644.483L529.39,654.682C498.32,650.926 467.061,648.959 435.766,648.79L439.762,641.042C438.188,640.495 431.271,645.679 431.271,645.679L437.398,619.402C429.48,620.357 425.454,647.187 425.454,647.187L416.608,638.116L421.144,648.918C403.153,649.215 385.189,650.435 367.324,652.574C371.366,640.504 385.097,629.024 385.097,629.024C374.61,632.143 369.11,637.369 366.236,642.241C365.979,617.337 370.12,592.582 378.468,569.117C386.817,545.653 356.794,616.283 359.559,647.943L359.89,653.564C341.515,656.195 334.286,662.377 334.286,662.377L580.494,662.044Z" style="fill:rgb(63,61,86);fill-rule:nonzero;"/>
    </g>
    <circle cx="355.705" cy="255.588" r="34.787" style="fill:rgb(255,101,132);"/>
    <path d="M728.996,475.767L724.918,472.504L747.757,452.112L805.67,452.112L805.67,470.057L768.149,495.343L728.996,475.767Z" style="fill:rgb(63,61,86);fill-rule:nonzero;"/>
    <path d="M816.229,463.551L816.229,452.52L808.54,452.52L808.54,455.221L805.67,452.112L786.909,472.504L779.568,477.398L768.186,560.56L785.352,577.726L825.246,577.726L825.246,473.32L816.229,463.551Z" style="fill:rgb(204,204,204);fill-rule:nonzero;"/>
    <rect x="724.918" y="472.504" width="61.991" height="105.222" style="fill:rgb(242,242,242);"/>
    <rect x="748.98" y="552.032" width="11.419" height="25.694" style="fill:rgb(204,204,204);"/>
    <path d="M736.745,559.373L736.745,555.295L731.851,555.295L731.851,559.373L736.745,559.373Z" style="fill:rgb(63,61,86);fill-rule:nonzero;"/>
    <path d="M736.745,562.636L731.851,562.636L731.851,566.714L736.745,566.714L736.745,562.636Z" style="fill:rgb(63,61,86);fill-rule:nonzero;"/>
    <rect x="740.008" y="555.295" width="4.894" height="4.078" style="fill:rgb(63,61,86);"/>
    <rect x="740.008" y="562.636" width="4.894" height="4.078" style="fill:rgb(63,61,86);"/>
    <path d="M770.188,559.373L770.188,555.295L765.294,555.295L765.294,559.373L770.188,559.373Z" style="fill:rgb(63,61,86);fill-rule:nonzero;"/>
    <path d="M770.188,562.636L765.294,562.636L765.294,566.714L770.188,566.714L770.188,562.636Z" style="fill:rgb(63,61,86);fill-rule:nonzero;"/>
    <rect x="773.451" y="555.295" width="4.894" height="4.078" style="fill:rgb(63,61,86);"/>
    <rect x="773.451" y="562.636" width="4.894" height="4.078" style="fill:rgb(63,61,86);"/>
    <path d="M804.446,477.806L804.446,473.727L799.552,473.727L799.552,477.806L804.446,477.806Z" style="fill:rgb(63,61,86);fill-rule:nonzero;"/>
    <path d="M804.446,481.069L799.552,481.069L799.552,485.147L804.446,485.147L804.446,481.069Z" style="fill:rgb(63,61,86);fill-rule:nonzero;"/>
    <rect x="807.709" y="473.727" width="4.894" height="4.078" style="fill:rgb(63,61,86);"/>
    <rect x="807.709" y="481.069" width="4.894" height="4.078" style="fill:rgb(63,61,86);"/>
    <path d="M804.446,500.645L804.446,496.566L799.552,496.566L799.552,500.645L804.446,500.645Z" style="fill:rgb(63,61,86);fill-rule:nonzero;"/>
    <path d="M804.446,503.907L799.552,503.907L799.552,507.986L804.446,507.986L804.446,503.907Z" style="fill:rgb(63,61,86);fill-rule:nonzero;"/>
    <rect x="807.709" y="496.566" width="4.894" height="4.078" style="fill:rgb(63,61,86);"/>
    <rect x="807.709" y="503.907" width="4.894" height="4.078" style="fill:rgb(63,61,86);"/>
    <path d="M804.446,523.484L804.446,519.405L799.552,519.405L799.552,523.484L804.446,523.484Z" style="fill:rgb(63,61,86);fill-rule:nonzero;"/>
    <path d="M804.446,526.746L799.552,526.746L799.552,530.825L804.446,530.825L804.446,526.746Z" style="fill:rgb(63,61,86);fill-rule:nonzero;"/>
    <rect x="807.709" y="519.405" width="4.894" height="4.078" style="fill:rgb(63,61,86);"/>
    <rect x="807.709" y="526.746" width="4.894" height="4.078" style="fill:rgb(63,61,86);"/>
    <path d="M804.446,546.322L804.446,542.244L799.552,542.244L799.552,546.322L804.446,546.322Z" style="fill:rgb(63,61,86);fill-rule:nonzero;"/>
    <path d="M804.446,549.585L799.552,549.585L799.552,553.664L804.446,553.664L804.446,549.585Z" style="fill:rgb(63,61,86);fill-rule:nonzero;"/>
    <rect x="807.709" y="542.244" width="4.894" height="4.078" style="fill:rgb(63,61,86);"/>
    <rect x="807.709" y="549.585" width="4.894" height="4.078" style="fill:rgb(63,61,86);"/>
    <rect x="731.851" y="477.806" width="47.309" height="9.788" style="fill:rgb(63,61,86);"/>
    <rect x="731.851" y="497.382" width="47.309" height="9.788" style="fill:rgb(63,61,86);"/>
    <rect x="731.851" y="516.958" width="47.309" height="9.788" style="fill:rgb(63,61,86);"/>
    <rect x="731.851" y="536.534" width="47.309" height="9.788" style="fill:rgb(63,61,86);"/>
    <path d="M355.902,469.793L397.421,469.793L397.421,459.771L420.328,459.771L420.328,469.793L463.279,469.793L463.279,514.176L420.328,514.176L420.328,570.012L397.421,570.012L397.421,514.176L355.902,514.176L334.426,489.837L355.902,469.793Z" style="fill:rgb(63,61,86);fill-rule:nonzero;"/>
    <g transform="matrix(1,0,0,1,-73.7786,-85)">
        <path d="M551.811,454.836L549.844,454.836C549.844,401.956 506.331,358.443 453.451,358.443C400.571,358.443 357.057,401.956 357.057,454.836L355.09,454.836C355.107,400.889 399.504,356.507 453.451,356.507C507.398,356.507 551.794,400.889 551.811,454.836Z" style="fill:rgb(63,61,86);fill-rule:nonzero;"/>
    </g>
    <g transform="matrix(1,-0.00188,0.00188,1,-74.539,-84.2386)">
        <rect x="404.177" y="355.987" width="2.514" height="99.297" style="fill:rgb(63,61,86);"/>
    </g>
    <g transform="matrix(1,0,0,1,-73.7786,-85)">
        <path d="M429.821,368.596C430.046,403.317 405.671,431.623 405.671,431.623C405.671,431.623 380.93,403.635 380.705,368.914C380.48,334.193 404.855,305.886 404.855,305.886C404.855,305.886 429.596,333.874 429.821,368.596Z" style="fill:rgb(53,173,224);fill-rule:nonzero;"/>
    </g>
    <g transform="matrix(1,0,0,1,-73.7786,-85)">
        <path d="M429.821,368.596C430.046,403.317 405.671,431.623 405.671,431.623C405.671,431.623 380.93,403.635 380.705,368.914C380.48,334.193 404.855,305.886 404.855,305.886C404.855,305.886 429.596,333.874 429.821,368.596Z" style="fill-opacity:0.1;fill-rule:nonzero;"/>
    </g>
    <g transform="matrix(1,-0.00188,0.00188,1,-74.5392,-84.2999)">
        <rect x="371.497" y="356.049" width="2.514" height="99.297" style="fill:rgb(63,61,86);"/>
    </g>
    <g transform="matrix(1,0,0,1,-73.7786,-85)">
        <path d="M397.141,368.657C397.366,403.378 372.991,431.685 372.991,431.685C372.991,431.685 348.25,403.697 348.025,368.976C347.8,334.254 372.175,305.948 372.175,305.948C372.175,305.948 396.916,333.936 397.141,368.657Z" style="fill:rgb(53,173,224);fill-rule:nonzero;"/>
    </g>
    <rect x="465.544" y="291.88" width="1.99" height="78.61" style="fill:rgb(63,61,86);"/>
    <g transform="matrix(1,0,0,1,-73.7786,-85)">
        <path d="M559.68,386.898C559.806,414.386 540.467,436.759 540.467,436.759C540.467,436.759 520.922,414.566 520.796,387.077C520.669,359.589 540.008,337.216 540.008,337.216C540.008,337.216 559.553,359.41 559.68,386.898Z" style="fill:rgb(53,173,224);fill-rule:nonzero;"/>
    </g>
    <circle cx="770.609" cy="291.639" r="68.408" style="fill:rgb(63,61,86);"/>
    <path d="M777.45,266.171L777.45,294.807L735.823,294.807L728.132,304.034L729.01,294.807L725.269,294.807L725.269,266.171L777.45,266.171Z" style="fill:rgb(53,173,224);fill-rule:nonzero;"/>
    <rect x="758.677" y="276.035" width="18.772" height="18.772" style="fill-opacity:0.1;"/>
    <path d="M762.813,280.171L814.994,280.171L814.994,308.807L811.252,308.807L812.131,318.034L804.441,308.807L762.813,308.807L762.813,280.171Z" style="fill:rgb(53,173,224);fill-rule:nonzero;"/>
    <ellipse cx="728.451" cy="307.534" rx="11.454" ry="1.117" style="fill-opacity:0.1;"/>
    <ellipse cx="812.131" cy="322.488" rx="13.045" ry="1.273" style="fill-opacity:0.1;"/>
    <g transform="matrix(1,0,0,1,-73.7786,-85)">
        <path d="M883.222,106.032L838.018,106.032C833.541,106.032 829.629,109.16 828.644,113.528L805.803,214.838C805.677,215.398 805.613,215.971 805.613,216.546C805.613,220.662 808.886,224.1 812.998,224.303L859.467,226.592C864.59,226.845 869.155,223.218 870.068,218.171L883.025,146.543L883.989,146.819L886.468,133.243L885.476,132.995L889.092,113.001C889.155,112.653 889.187,112.301 889.187,111.948C889.187,108.702 886.516,106.031 883.27,106.031C883.254,106.031 883.238,106.031 883.222,106.032Z" style="fill:rgb(63,61,86);fill-rule:nonzero;"/>
    </g>
    <g transform="matrix(1,0,0,1,-73.7786,-85)">
        <path d="M843.969,108.216L838.692,108.216C835.582,108.216 832.867,110.401 832.204,113.441L810.281,213.924C810.218,214.212 810.186,214.507 810.186,214.801C810.186,216.957 811.88,218.767 814.032,218.908L860.351,221.943C863.043,222.12 865.466,220.225 865.944,217.57L884.652,113.711C884.701,113.438 884.726,113.161 884.726,112.883C884.726,110.323 882.619,108.216 880.058,108.216L875.052,108.216C874.059,108.216 873.183,108.887 872.925,109.846C872.697,110.692 871.924,111.285 871.047,111.285L847.284,111.285C845.556,111.285 844.102,109.938 843.969,108.216Z" style="fill:rgb(53,173,224);fill-rule:nonzero;"/>
    </g>
    <circle cx="389.947" cy="81.788" r="65.461" style="fill:rgb(53,173,224);"/>
    <g transform="matrix(1,0,0,1,-73.7786,-85)">
        <path d="M520.725,207.888C508.157,207.889 480.402,194.98 455.718,179.861C425.088,161.1 395.34,136.578 400.54,128.087C402.01,125.687 405.654,125.059 411.681,126.166L411.249,128.519C406.582,127.66 403.423,127.96 402.58,129.336C401.351,131.343 404.062,137.17 415.356,147.504C425.648,156.923 440.426,167.689 456.968,177.821C473.51,187.953 489.816,196.225 502.882,201.115C517.22,206.481 523.642,206.247 524.87,204.241C525.714,202.863 524.542,199.91 521.653,196.137L523.552,194.683C527.282,199.555 528.381,203.09 526.91,205.49C525.9,207.139 523.754,207.888 520.725,207.888Z" style="fill:rgb(63,61,86);fill-rule:nonzero;"/>
    </g>
    <circle cx="381.867" cy="48.141" r="13.39" style="fill:white;"/>
    <circle cx="385.745" cy="121.543" r="8.926" style="fill:white;"/>
    <circle cx="416.484" cy="90.94" r="8.926" style="fill:white;"/>
    <g transform="matrix(1,0,0,1,-73.7786,-85)">
        <path d="M1007.22,663.361L690.5,663.361L690.5,500.082L1007.22,500.082L1007.22,663.361ZM692.467,661.394L1005.25,661.394L1005.25,502.049L692.467,502.049L692.467,661.394Z" style="fill:rgb(53,173,224);fill-rule:nonzero;"/>
    </g>
    <g transform="matrix(1,0,0,1,-73.7786,-85)">
        <path d="M1005.25,456.803L688.533,456.803L688.533,293.525L1005.25,293.525L1005.25,456.803ZM690.5,454.836L1003.29,454.836L1003.29,295.492L690.5,295.492L690.5,454.836Z" style="fill:rgb(53,173,224);fill-rule:nonzero;"/>
    </g>
    <g transform="matrix(1,0,0,1,-73.7786,-85)">
        <path d="M298.189,805.303C303.559,825.153 321.951,837.447 321.951,837.447C321.951,837.447 331.638,817.557 326.268,797.707C320.898,777.857 302.506,765.563 302.506,765.563C302.506,765.563 292.819,785.453 298.189,805.303Z" style="fill:rgb(63,61,86);fill-rule:nonzero;"/>
    </g>
    <g transform="matrix(1,0,0,1,-73.7786,-85)">
        <path d="M306.079,801.037C320.814,815.381 322.614,837.431 322.614,837.431C322.614,837.431 300.524,836.225 285.789,821.881C271.054,807.537 269.254,785.487 269.254,785.487C269.254,785.487 291.344,786.693 306.079,801.037Z" style="fill:rgb(53,173,224);fill-rule:nonzero;"/>
    </g>
    <g transform="matrix(1,0,0,1,-73.7786,-85)">
        <path d="M357.556,528.634L341.853,530.379C341.853,530.379 334.873,561.785 341.853,603.661C348.832,645.537 357.556,687.412 357.556,687.412C357.556,687.412 364.535,823.508 368.025,825.253C371.515,826.998 402.921,837.466 404.666,826.998C406.411,816.529 406.411,577.489 406.411,577.489L430.838,692.647C430.838,692.647 434.328,837.466 441.307,837.466C448.286,837.466 470.969,835.722 470.969,823.508C470.969,811.294 476.204,650.771 476.204,650.771C476.204,650.771 474.459,532.123 467.479,528.634C460.5,525.144 357.556,528.634 357.556,528.634Z" style="fill:rgb(47,46,65);fill-rule:nonzero;"/>
    </g>
    <g transform="matrix(1,0,0,1,-73.7786,-85)">
        <path d="M371.515,820.018C371.515,820.018 355.811,818.273 352.322,820.018C348.832,821.763 343.597,833.977 352.322,840.956C361.046,847.935 383.728,858.404 390.708,858.404C397.687,858.404 404.666,854.915 404.666,854.915L401.176,825.253L371.515,820.018Z" style="fill:rgb(47,46,65);fill-rule:nonzero;"/>
    </g>
    <g transform="matrix(1,0,0,1,-73.7786,-85)">
        <path d="M441.307,828.742L443.052,853.17C443.052,853.17 465.735,856.659 467.479,853.17C469.224,849.68 486.672,840.956 488.417,839.211C490.162,837.466 491.907,818.273 481.438,816.529C470.969,814.784 467.479,820.018 467.479,820.018L441.307,828.742Z" style="fill:rgb(47,46,65);fill-rule:nonzero;"/>
    </g>
    <g transform="matrix(1,0,0,1,-73.7786,-85)">
        <path d="M481.854,321.015C481.854,321.015 520.001,296.484 519.118,279.631C518.235,262.778 495.239,209.639 495.239,209.639C495.239,209.639 477.249,172.236 470.097,187.522C462.945,202.808 479.497,219.08 479.497,219.08L490.18,271.206L461.146,298.905L481.854,321.015Z" style="fill:rgb(160,97,106);fill-rule:nonzero;"/>
    </g>
    <circle cx="313.439" cy="169.698" r="31.407" style="fill:rgb(160,97,106);"/>
    <g transform="matrix(1,0,0,1,-73.7786,-85)">
        <path d="M371.515,273.891L376.749,307.042L415.135,300.063C415.135,300.063 413.39,266.911 413.39,263.422C413.39,259.932 371.515,273.891 371.515,273.891Z" style="fill:rgb(160,97,106);fill-rule:nonzero;"/>
    </g>
    <g transform="matrix(1,0,0,1,-73.7786,-85)">
        <path d="M369.77,307.042C369.77,307.042 413.39,296.573 418.625,300.063C423.859,303.552 450.031,307.042 450.031,307.042L479.693,352.407L470.969,409.986C470.969,409.986 469.224,502.462 472.714,518.165C476.204,533.868 495.397,535.613 455.266,539.103C415.135,542.592 408.156,537.358 380.239,544.337C352.321,551.316 329.639,540.848 336.618,533.868C343.597,526.889 355.811,415.221 341.853,404.752C327.894,394.283 322.66,340.194 322.66,340.194C322.66,340.194 369.77,315.766 369.77,307.042Z" style="fill:rgb(63,61,86);fill-rule:nonzero;"/>
    </g>
    <g transform="matrix(1,0,0,1,-73.7786,-85)">
        <path d="M444.797,312.277L460.5,296.573C460.5,296.573 494.524,311.404 492.779,316.639C491.034,321.873 479.693,352.407 479.693,352.407L463.99,357.642L444.797,312.277Z" style="fill:rgb(63,61,86);fill-rule:nonzero;"/>
    </g>
    <g transform="matrix(1,0,0,1,-73.7786,-85)">
        <path d="M398.178,216.648L397.856,214.132C395.722,214.12 393.599,214.454 391.571,215.12C391.363,213.603 391.496,212.058 391.959,210.599C389.898,211.129 387.934,211.982 386.141,213.128L384.872,208.536L367.43,217.133C361.168,220.219 354.567,223.609 350.988,229.602C346.998,236.283 347.692,244.87 350.42,252.158C353.147,259.446 357.68,265.896 361.313,272.778C362.693,275.737 364.35,278.559 366.264,281.204C372.848,289.412 385.664,291.07 394.947,286.116C398.373,284.288 401.485,281.556 402.895,277.937C403.737,275.774 403.93,273.419 404.482,271.164C405.63,266.474 406.963,256.792 410.773,253.825C412.449,252.52 415.773,256.848 417.162,255.24C420.732,251.108 419.983,244.736 417.765,239.746C415.637,234.734 413.15,229.883 410.323,225.229C409.125,223.359 398.14,216.346 398.178,216.648Z" style="fill:rgb(47,46,65);fill-rule:nonzero;"/>
    </g>
    <g transform="matrix(1,0,0,1,-73.7786,-85)">
        <path d="M294.743,382.069C294.743,382.069 252.867,422.2 258.101,443.138C263.336,464.076 305.211,525.144 305.211,525.144C305.211,525.144 345.342,546.082 350.577,525.144C355.811,504.206 322.66,509.441 322.66,509.441L296.487,446.627L326.149,404.752L294.743,382.069Z" style="fill:rgb(160,97,106);fill-rule:nonzero;"/>
    </g>
    <g transform="matrix(1,0,0,1,-73.7786,-85)">
        <path d="M343.597,343.683L322.66,340.194C322.66,340.194 306.956,357.642 301.722,364.621C296.487,371.6 286.019,389.049 286.019,389.049L322.66,415.221L350.577,385.559L343.597,343.683Z" style="fill:rgb(63,61,86);fill-rule:nonzero;"/>
    </g>
</svg>
